<svg fill="none" height="24" viewBox="0 0 24 24" width="24" xmlns="http://www.w3.org/2000/svg"><path d="m22.0963 15.2349c-.7955-.6989-1.7601-1.3028-2.8673-1.7948-.4733-.2102-1.0272.003-1.2374.4761s.0029 1.027.4761 1.2374c.9336.4149 1.7382.9161 2.3909 1.4898.8048.7071 1.2664 1.7311 1.2664 2.8097v1.7344c0 .5169-.4206.9375-.9375.9375h-18.375c-.51691 0-.9375-.4206-.9375-.9375v-1.7344c0-1.0786.46161-2.1026 1.26636-2.8097.9472-.8324 3.70697-2.7684 8.85864-2.7684 3.8253 0 6.9375-3.1122 6.9375-6.9375 0-3.82526-3.1122-6.9375-6.9375-6.9375-3.82526 0-6.9375 3.11224-6.9375 6.9375 0 2.23627 1.06384 4.2285 2.71179 5.4979-3.01538.6629-4.89111 1.9387-5.87054 2.7995-1.20978 1.063-1.90375 2.6003-1.90375 4.2182v1.7344c0 1.5509 1.2616 2.8125 2.8125 2.8125h18.375c1.5509 0 2.8125-1.2616 2.8125-2.8125v-1.7344c0-1.6179-.694-3.1552-1.9037-4.2182zm-15.1588-8.2974c0-2.79144 2.27106-5.0625 5.0625-5.0625 2.7914 0 5.0625 2.27106 5.0625 5.0625s-2.2711 5.0625-5.0625 5.0625c-2.79144 0-5.0625-2.27106-5.0625-5.0625z" fill="#c5c4c8"/></svg>