<svg xmlns="http://www.w3.org/2000/svg" width="25.477" height="24.401" viewBox="0 0 25.477 24.401">
  <g id="Icon_feather-shopping-cart" data-name="Icon feather-shopping-cart" transform="translate(0.9 0.9)">
    <path id="Path_5" data-name="Path 5" d="M14.152,31.076A1.076,1.076,0,1,1,13.076,30,1.076,1.076,0,0,1,14.152,31.076Z" transform="translate(-4.466 -9.552)" fill="none" stroke="#979797" stroke-linecap="round" stroke-linejoin="round" stroke-width="1.8"/>
    <path id="Path_6" data-name="Path 6" d="M30.652,31.076A1.076,1.076,0,1,1,29.576,30,1.076,1.076,0,0,1,30.652,31.076Z" transform="translate(-9.128 -9.552)" fill="none" stroke="#979797" stroke-linecap="round" stroke-linejoin="round" stroke-width="1.8"/>
    <path id="Path_7" data-name="Path 7" d="M1.5,1.5H5.8L8.689,15.911a2.152,2.152,0,0,0,2.152,1.733H21.3a2.152,2.152,0,0,0,2.152-1.733l1.722-9.03H6.881" transform="translate(-1.5 -1.5)" fill="none" stroke="#979797" stroke-linecap="round" stroke-linejoin="round" stroke-width="1.8"/>
  </g>
</svg>
