<svg fill="none" height="24" viewBox="0 0 24 24" width="24" xmlns="http://www.w3.org/2000/svg" xmlns:xlink="http://www.w3.org/1999/xlink"><clipPath id="a"><path d="m0 0h24v24h-24z"/></clipPath><g clip-path="url(#a)" fill="#c5c4c8" stroke="#fff" stroke-width=".4"><path d="m22.5013 21.0943v.01h.2c.6064 0 1.0987.4924 1.0987 1.0987 0 .6064-.4923 1.0987-1.0986 1.0987h-17.49668c-2.76373 0-5.00472-2.2411-5.00472-5.0047v-16.50004c0-.60635.492316-1.098669 1.09867-1.098669.60635 0 1.09867.492359 1.09867 1.098669v16.50004l.00001.0008c.00651 1.5466 1.26058 2.7965 2.80737 2.7965z"/><path d="m8.3345 14.4348c-.15933.2128-.3892.3591-.64454.4154v-.0014l-.1963-.0036c-.23122-.0043-.45593-.0825-.64069-.223h-.00004c-.48301-.3672-.57741-1.0572-.21048-1.5399l.00014.0001.00477-.0069 3.70854-5.32658c.003-.00367.0061-.00785.0093-.01249.3653-.48059 1.0516-.57604 1.5347-.21263l4.2684 3.2114.1657.1246.1186-.17 3.0182-4.32602c.365-.48505 1.0535-.58305 1.5402-.21887.4873.36459.5863 1.05466.2216 1.54218l-.0001-.00005-.0032.00457-3.7789 5.35679c-.0039.0047-.0076.0096-.011.0147-.3655.4796-1.0511.5746-1.5339.2115l-4.2684-3.2114-.1657-.12463-.1186.17003z"/></g></svg>