<svg fill="none" height="145" viewBox="0 0 145 145" width="145" xmlns="http://www.w3.org/2000/svg" xmlns:xlink="http://www.w3.org/1999/xlink"><linearGradient id="a" gradientUnits="userSpaceOnUse" x1="110.5" x2="7.50002" y1="-.000002" y2="135"><stop offset="0" stop-color="#fff"/><stop offset="1" stop-color="#fff" stop-opacity=".35"/></linearGradient><path clip-rule="evenodd" d="m27.6429 117.357c11.8969 11.897 28.0324 18.581 44.8571 18.581s32.96-6.684 44.857-18.581 18.581-28.0323 18.581-44.857-6.684-32.9602-18.581-44.8571c-11.897-11.8968-28.0323-18.5804-44.857-18.5804s-32.9602 6.6836-44.8571 18.5804c-11.8968 11.8969-18.5804 28.0324-18.5804 44.8571s6.6836 32.96 18.5804 44.857zm96.1221 6.408c-13.596 13.597-32.0368 21.235-51.265 21.235s-37.6689-7.638-51.2652-21.235c-13.59643-13.596-21.2348-32.0368-21.2348-51.265s7.63837-37.6689 21.2348-51.2652c13.5963-13.59643 32.037-21.2348 51.2652-21.2348s37.669 7.63837 51.265 21.2348c13.597 13.5963 21.235 32.037 21.235 51.2652s-7.638 37.669-21.235 51.265zm-24.5284-78.5246c.0561-.0702.1167-.1368.1812-.1994 1.2682-1.2572 2.9802-1.9648 4.7662-1.9697s3.502.6932 4.777 1.9434 2.007 2.9521 2.038 4.7376c.03 1.7856-.643 3.5114-1.875 4.8044l-36.1777 45.2218c-.6217.6685-1.3716 1.2045-2.205 1.5765-.8334.373-1.7332.573-2.6458.59-.9125.017-1.8192-.15-2.6658-.491s-1.6159-.849-2.2619-1.4942l-23.9793-23.9885c-1.2006-1.2884-1.8543-2.9926-1.8232-4.7534.0311-1.7609.7444-3.441 1.9897-4.6863s2.9254-1.9586 4.6862-1.9897c1.7609-.031 3.4651.6226 4.7535 1.8232l18.9678 18.9769z" fill="url(#a)" fill-rule="evenodd"/></svg>