<svg fill="none" height="24" viewBox="0 0 24 24" width="24" xmlns="http://www.w3.org/2000/svg" xmlns:xlink="http://www.w3.org/1999/xlink"><linearGradient id="a" gradientUnits="userSpaceOnUse" x1="24" x2="13.9507" y1="2.35714" y2="36.4998"><stop offset="0" stop-color="#4fcefd"/><stop offset="1" stop-color="#6267fb"/></linearGradient><path d="m12 0c-2.37337 0-4.69345.703788-6.66684 2.02236-1.97339 1.31858-3.51146 3.19272-4.419709 5.38544-.90825159 2.19271-1.145892 4.6055-.682869 6.9333s1.605908 4.4659 3.284138 6.1442c1.67823 1.6782 3.81643 2.8211 6.1442 3.2841 2.32778.463 4.74058.2254 6.93328-.6829 2.1927-.9082 4.0669-2.4463 5.3854-4.4197 1.3186-1.9734 2.0224-4.2934 2.0224-6.6668-.0036-3.18149-1.269-6.23165-3.5187-8.4813-2.2497-2.24966-5.2998-3.51509636-8.4813-3.5187zm0 22.1538c-2.00824 0-3.97138-.5955-5.64117-1.7112s-2.97124-2.7015-3.73976-4.5569-.9696-3.897-.57781-5.8666c.39179-1.96967 1.35885-3.77891 2.77889-5.19895s3.22928-2.3871 5.19895-2.77889c1.9696-.39179 4.0112-.19071 5.8666.57781s3.4412 2.06996 4.5569 3.73975 1.7112 3.63294 1.7112 5.64118c-.003 2.692-1.0738 5.2729-2.9773 7.1765-1.9036 1.9035-4.4845 2.9743-7.1765 2.9773zm4.6154-7.8461c-.001.8566-.3416 1.6778-.9473 2.2834-.6057.6057-1.4269.9464-2.2835.9474h-.4615v.923c0 .2449-.0973.4796-.2704.6528-.1731.1731-.4079.2703-.6527.2703s-.4796-.0972-.6527-.2703c-.1731-.1732-.2704-.4079-.2704-.6528v-.923h-1.84613c-.24481 0-.4796-.0973-.65271-.2704s-.27036-.4079-.27036-.6527.09725-.4796.27036-.6527.4079-.2704.65271-.2704h4.15383c.3672 0 .7194-.1459.9791-.4055.2597-.2597.4055-.6119.4055-.9791s-.1458-.7194-.4055-.9791c-.2597-.2596-.6119-.4055-.9791-.4055h-2.7692c-.85687 0-1.67862-.3404-2.28451-.9463s-.94627-1.4276-.94627-2.28449c0-.85686.34038-1.67862.94627-2.2845.60589-.60589 1.42764-.94627 2.28451-.94627h.4615v-.92308c0-.24481.0973-.4796.2704-.65271s.4079-.27037.6527-.27037.4796.09726.6527.27037.2704.4079.2704.65271v.92308h1.8461c.2448 0 .4796.09725.6527.27036.1732.17311.2704.4079.2704.65271 0 .24482-.0972.47961-.2704.65272-.1731.17311-.4079.27036-.6527.27036h-4.1538c-.3672 0-.71942.14588-.97908.40554-.25967.25967-.40555.61185-.40555.97908 0 .36719.14588.71939.40555.97909.25966.2596.61188.4055.97908.4055h2.7692c.8566.001 1.6778.3417 2.2835.9473.6057.6057.9463 1.4269.9473 2.2835z" fill="url(#a)"/></svg>