<svg fill="none" height="24" viewBox="0 0 24 24" width="24" xmlns="http://www.w3.org/2000/svg" xmlns:xlink="http://www.w3.org/1999/xlink"><linearGradient id="a" gradientUnits="userSpaceOnUse" x1="24" x2="13.9507" y1="2.35714" y2="36.4998"><stop offset="0" stop-color="#4fcefd"/><stop offset="1" stop-color="#6267fb"/></linearGradient><path d="m0 12c0-3.1826 1.26428-6.23484 3.51472-8.48528s5.30268-3.51472 8.48528-3.51472 6.2348 1.26428 8.4853 3.51472c2.2504 2.25044 3.5147 5.30268 3.5147 8.48528s-1.2643 6.2348-3.5147 8.4853c-2.2505 2.2504-5.3027 3.5147-8.4853 3.5147s-6.23484-1.2643-8.48528-3.5147c-2.25044-2.2505-3.51472-5.3027-3.51472-8.4853zm11.25-10.3845c-1.005.306-2.0025 1.23-2.8305 2.7825-.2728.51614-.50743 1.05158-.702 1.602h3.5325zm-5.115 4.3845c.25001-.79677.57131-1.5694.96-2.3085.25936-.49042.55888-.95852.8955-1.3995-1.85849.77074-3.45749 2.05743-4.608 3.708zm-.873 5.25c.045-1.3155.207-2.577.468-3.75h-3.219c-.55932 1.17758-.89308 2.44952-.984 3.75zm2.0085-3.75c-.29503 1.2297-.46489 2.4861-.507 3.75h4.4865v-3.75zm5.4795 0v3.75h4.485c-.0416-1.26385-.2109-2.52025-.5055-3.75zm-5.985 5.25c.04162 1.2638.21098 2.5202.5055 3.75h3.9795v-3.75zm5.985 0v3.75h3.9795c.2805-1.1475.459-2.412.507-3.75zm-5.0325 5.25c.207.579.4425 1.116.702 1.602.828 1.5525 1.827 2.475 2.8305 2.7825v-4.3845zm.273 3.708c-.33664-.441-.63616-.9091-.8955-1.3995-.38868-.7391-.70998-1.5117-.96-2.3085h-2.7525c1.15045 1.6506 2.74946 2.9373 4.608 3.708zm-2.2605-5.208c-.27125-1.2329-.42792-2.4882-.468-3.75h-3.735c.093 1.335.4365 2.5995.984 3.75zm10.2795 5.208c1.8585-.7707 3.4576-2.0574 4.608-3.708h-2.7525c-.25.7968-.5713 1.5694-.96 2.3085-.2593.4905-.5588.9586-.8955 1.3995zm-3.2595-3.708v4.3845c1.005-.306 2.0025-1.23 2.8305-2.7825.2595-.486.495-1.023.702-1.602zm5.52-1.5h3.219c.5475-1.1505.891-2.415.984-3.75h-3.735c-.0401 1.2618-.1967 2.5171-.468 3.75zm4.203-5.25c-.091-1.30048-.4247-2.57241-.984-3.75h-3.219c.261 1.173.423 2.4345.468 3.75zm-5.568-7.5585c.3705.696.693 1.47.96 2.3085h2.7525c-1.1504-1.65063-2.7495-2.93733-4.608-3.708.327.426.627.897.8955 1.3995zm-.6225 2.3085c-.1946-.55043-.4292-1.08587-.702-1.602-.828-1.5525-1.8255-2.475-2.8305-2.7825v4.3845z" fill="url(#a)"/></svg>