<svg xmlns="http://www.w3.org/2000/svg" width="40" height="40" viewBox="0 0 40 40">
  <g id="Group_12432" data-name="Group 12432" transform="translate(-5 0)">
    <path id="Path_543" data-name="Path 543" d="M25,5A20,20,0,1,0,45,25,20,20,0,0,0,25,5Z" transform="translate(0 -5)" fill="#039be5"/>
    <path id="Path_544" data-name="Path 544" d="M27.1,29.89H32.28l.813-5.258H27.1V21.759c0-2.184.714-4.121,2.757-4.121h3.283V13.049a27.888,27.888,0,0,0-4.1-.248c-4.814,0-7.636,2.542-7.636,8.334v3.5H16.457V29.89h4.948V44.342a20.041,20.041,0,0,0,2.992.247,20.131,20.131,0,0,0,2.707-.2Z" transform="translate(0.603 -4.589)" fill="#fff"/>
  </g>
</svg>
