<svg height="181" viewBox="0 0 167 181" width="167" xmlns="http://www.w3.org/2000/svg" xmlns:xlink="http://www.w3.org/1999/xlink"><clipPath id="a"><path d="m0 0h167v181h-167z"/></clipPath><linearGradient id="b" gradientUnits="objectBoundingBox" x1="2.007" x2="3.135" y1="1.966" y2="1.966"><stop offset="0" stop-color="#3bb490"/><stop offset=".002" stop-color="#f6ff00"/><stop offset=".19" stop-color="#f8eb05"/><stop offset=".51" stop-color="#fccf0e"/><stop offset=".791" stop-color="#febe13"/><stop offset="1" stop-color="#ffb815"/></linearGradient><g clip-path="url(#a)"><path d="m232.521 43.15c6.519 12.768 7.961 27.309 7.138 41.448-.815 14-4.464 28.848-13.935 39.619-21.8 24.795-56.635 20.651-85.841 26.774-16.017 3.358-19.288 19.027-22.55 32.836-3.3 13.989-5.961 28.193-10.727 41.788-4.551 12.985-11.941 27.658-24.106 35.047-12.472 7.574-27.745 3.013-39.245-4.159a129.253 129.253 0 0 1 -15.67-11.982c-32.066-35.28-48.216-83.572-45.575-131.132 1.479-26.674 9.084-53.666 23.407-76.339 16.443-26.027 43.863-42.609 73.651-48.925 27.978-5.932 57.278-2.625 84.44 5.587 27.114 8.198 55.627 23.216 69.013 49.438z" fill="url(#b)" transform="translate(-72.729 -84.069)"/></g></svg>