<svg xmlns="http://www.w3.org/2000/svg" width="22.037" height="26.858" viewBox="0 0 22.037 26.858">
  <path id="Icon_material-notifications-none" data-name="Icon material-notifications-none" d="M17.019,30.608a2.763,2.763,0,0,0,2.755-2.755H14.264A2.763,2.763,0,0,0,17.019,30.608Zm8.264-8.264V15.457c0-4.228-2.245-7.768-6.2-8.7V5.816a2.066,2.066,0,1,0-4.132,0v.937c-3.939.937-6.2,4.463-6.2,8.7v6.887L6,25.1v1.377H28.037V25.1Zm-2.755,1.377H11.509V15.457c0-3.416,2.08-6.2,5.509-6.2s5.509,2.782,5.509,6.2Z" transform="translate(-6 -3.75)" fill="#979797"/>
</svg>
