<svg fill="none" height="19" viewBox="0 0 24 19" width="24" xmlns="http://www.w3.org/2000/svg" xmlns:xlink="http://www.w3.org/1999/xlink"><linearGradient id="a" gradientUnits="userSpaceOnUse" x1="23.9998" x2="17.8511" y1="1.96832" y2="29.1202"><stop offset="0" stop-color="#4fcefd"/><stop offset="1" stop-color="#6267fb"/></linearGradient><path clip-rule="evenodd" d="m0 3.1323c0-.78969.313701-1.54703.872093-2.10542.558397-.558394 1.315737-.872095 2.105417-.872095h14.88759c.7897 0 1.547.313701 2.1054.872095.5584.55839.8721 1.31573.8721 2.10542v8.9325c0 .7897-.3137 1.5471-.8721 2.1055-.5584.5583-1.3157.872-2.1054.872h-14.88759c-.78968 0-1.54702-.3137-2.105417-.872-.558392-.5584-.872093-1.3158-.872093-2.1055zm19.3538 0c0-.39484-.1568-.77352-.436-1.05271-.2792-.2792-.6579-.43605-1.0527-.43605h-14.88759c-.39484 0-.77351.15685-1.05271.43605-.27919.27919-.43604.65787-.43604 1.05271v1.48875h17.86504zm-17.86504 8.9325c0 .3949.15685.7736.43604 1.0527.2792.2792.65787.4361 1.05271.4361h14.88759c.3948 0 .7735-.1569 1.0527-.4361.2792-.2791.436-.6578.436-1.0527v-5.95499h-17.86504zm1.75723 4.2994c.12979.5193.39842.9987.78329 1.3835.55839.5584 1.31573.8721 2.10542.8721h14.8876c.7896 0 1.547-.3137 2.1054-.8721.5584-.5583.8721-1.3157.8721-2.1054v-8.93251c0-.78968-.3137-1.54702-.8721-2.10542-.1842-.1842-.3901-.34178-.6116-.47026v11.62999c0 .0849-.0176.1656-.0494.2388-.0649.2598-.1992.4996-.3917.6921-.2792.2792-.6579.4361-1.0527.4361h-14.8876c-.39485 0-.77352-.1569-1.05271-.4361-.09902-.099-.18266-.2105-.24936-.3308zm10.37161-5.5702c.1396-.1396.3289-.218.5263-.218h2.9775c.1975 0 .3868.0784.5264.218s.218.3289.218.5263c0 .1975-.0784.3868-.218.5264s-.3289.218-.5264.218h-2.9775c-.1974 0-.3867-.0784-.5263-.218s-.2181-.3289-.2181-.5264c0-.1974.0785-.3867.2181-.5263z" fill="url(#a)" fill-rule="evenodd"/></svg>