<svg fill="none" height="24" viewBox="0 0 24 24" width="24" xmlns="http://www.w3.org/2000/svg" xmlns:xlink="http://www.w3.org/1999/xlink"><linearGradient id="a" gradientUnits="userSpaceOnUse" x1="23.998" x2="13.9474" y1="2.35714" y2="36.499"><stop offset="0" stop-color="#4fcefd"/><stop offset="1" stop-color="#6267fb"/></linearGradient><path d="m23.0606 6.61196c.5177 0 .9374-.41966.9374-.93736v-.98423c0-2.58628-2.1042-4.69037-4.6904-4.69037 0 0-14.69355.0022028-14.72978.00646779-1.2368.04321231-2.42486.57394621-3.28123 1.47128221-.877792.91974-1.3354115 2.116-1.2923398 3.37464-.00178098.02386-.00271834 13.51991-.00271834 13.51991 0 3.1031 2.52459814 5.6277 5.62772814 5.6277h13.67834c2.5863 0 4.6904-2.1041 4.6904-4.6904v-7.1168c0-2.58626-2.1041-4.69035-4.6904-4.69035h-14.61931c-1.50498 0-2.73883-1.17629-2.80899-2.67795-.03567-.76357.23903-1.49246.77342-2.05244.54212-.56804 1.30349-.89378 2.08881-.89378.0277 0 14.56597-.00356 14.56597-.00356 1.5526 0 2.8157 1.2631 2.8157 2.81565v.98423c0 .5177.4197.93736.9374.93736zm-18.37231 2.76521h14.61931c1.5525 0 2.8156 1.26313 2.8156 2.81563v7.1168c0 1.5526-1.2631 2.8157-2.8156 2.8157h-13.67834c-2.06941 0-3.75301-1.6836-3.75301-3.753v-9.92869c.78401.58725 1.75816.93356 2.81204.93356zm15.56021 6.37403c0 .6471-.5246 1.1717-1.1717 1.1717-1.5542-.0617-1.5538-2.2819 0-2.3434.6471 0 1.1717.5246 1.1717 1.1717zm0-11.06083c0-.51771-.4196-.93736-.9373-.93736h-14.62286c-1.24369.04949-1.24276 1.82565 0 1.87472h14.62286c.5176 0 .9373-.41966.9373-.93736z" fill="url(#a)"/></svg>