<svg height="166" viewBox="0 0 187 166" width="187" xmlns="http://www.w3.org/2000/svg" xmlns:xlink="http://www.w3.org/1999/xlink"><clipPath id="a"><path d="m188 624h187v166h-187z"/></clipPath><linearGradient id="b" gradientUnits="objectBoundingBox" x1="-.468" x2=".624" y1="-.391" y2="-.391"><stop offset="0" stop-color="#ffc000"/><stop offset=".002" stop-color="#f6ff00"/><stop offset=".19" stop-color="#f8eb05"/><stop offset=".51" stop-color="#fccf0e"/><stop offset=".791" stop-color="#febe13"/><stop offset="1" stop-color="#ffb815"/></linearGradient><g clip-path="url(#a)" transform="translate(-188 -624)"><path d="m127.958 508.04c-4.181-13.713-3.054-28.281.234-42.058 3.256-13.646 9.448-27.62 20.659-36.566 25.81-20.592 59.377-10.41 89.2-11.323 16.357-.5 22.323-15.354 27.952-28.378 5.7-13.194 10.808-26.713 17.881-39.262 6.756-11.986 16.6-25.139 29.876-30.283 13.6-5.273 27.843 1.894 37.909 10.969a129.3 129.3 0 0 1 13.331 14.542c25.39 40.351 32.831 90.726 21.9 137.088-6.131 26-18.346 51.244-36.42 71.058-20.748 22.744-50.648 34.267-81.082 35.267-28.584.939-56.852-7.449-82.155-20.292-25.257-12.821-50.698-32.602-59.285-60.762z" fill="url(#b)" transform="translate(63.749 305.623)"/></g></svg>