<svg xmlns="http://www.w3.org/2000/svg" width="8.565" height="15.144" viewBox="0 0 8.565 15.144">
  <path id="Icon_material-attach-money" data-name="Icon material-attach-money" d="M14.091,11.147c-1.91-.5-2.524-1.01-2.524-1.809,0-.917.85-1.556,2.272-1.556,1.5,0,2.053.715,2.1,1.767H17.8a3.354,3.354,0,0,0-2.7-3.206V4.5H12.576V6.317c-1.632.353-2.945,1.413-2.945,3.037,0,1.944,1.607,2.911,3.954,3.475,2.1.5,2.524,1.245,2.524,2.028,0,.581-.412,1.506-2.272,1.506-1.733,0-2.415-.774-2.507-1.767H9.48a3.525,3.525,0,0,0,3.1,3.222v1.826H15.1V17.835c1.641-.311,2.945-1.262,2.945-2.987C18.045,12.459,16,11.643,14.091,11.147Z" transform="translate(-9.48 -4.5)" fill="#fff"/>
</svg>
