<svg xmlns="http://www.w3.org/2000/svg" width="19.599" height="20.104" viewBox="0 0 19.599 20.104">
  <path id="Icon_awesome-star-half-alt" data-name="Icon awesome-star-half-alt" d="M15.576,5.253,11.093,4.6l-2-4.055a.984.984,0,0,0-1.761,0l-2,4.055L.841,5.252A.98.98,0,0,0,.3,6.924L3.54,10.079l-.768,4.456a.982.982,0,0,0,.968,1.147.968.968,0,0,0,.455-.115l4.011-2.1,4.01,2.1a.98.98,0,0,0,1.424-1.032l-.767-4.456,3.244-3.154a.98.98,0,0,0-.543-1.672ZM11.847,9.027l-.555.54.131.762.6,3.475L8.893,12.162l-.685-.36V2.087L9.772,5.251l.342.693.766.111,3.5.509L11.847,9.027Z" transform="translate(0 15.781) rotate(-74)" fill="#fff"/>
</svg>
